<?xml version="1.0" standalone="no"?>
<!DOCTYPE svg PUBLIC "-//W3C//DTD SVG 20010904//EN"
 "http://www.w3.org/TR/2001/REC-SVG-20010904/DTD/svg10.dtd">
<svg version="1.0" xmlns="http://www.w3.org/2000/svg"
 width="212.000000pt" height="212.000000pt" viewBox="0 0 212.000000 212.000000"
 preserveAspectRatio="xMidYMid meet">
<metadata>
Created by potrace 1.14, written by Peter Selinger 2001-2017
</metadata>
<g transform="translate(0.000000,212.000000) scale(0.100000,-0.100000)"
fill="#000000" stroke="none">
<path d="M991 1951 c-56 -59 -143 -199 -240 -382 l-71 -136 -88 -12 c-298 -44
-512 -102 -557 -151 -16 -17 -15 -21 4 -65 11 -26 51 -83 88 -128 83 -101 64
-80 212 -230 l123 -126 -10 -48 c-6 -26 -15 -77 -21 -113 -6 -36 -15 -95 -21
-131 -5 -37 -10 -112 -10 -168 0 -154 24 -186 119 -157 98 29 226 96 427 222
55 35 107 64 115 64 8 0 56 -27 107 -60 51 -33 96 -60 99 -60 2 0 17 -9 32
-19 48 -35 265 -138 313 -150 88 -21 108 9 108 162 0 97 -29 335 -51 419 l-10
38 88 87 c172 172 294 316 333 392 18 37 20 47 10 67 -26 48 -237 106 -567
156 l-81 12 -42 81 c-125 239 -234 411 -290 458 -45 38 -67 34 -119 -22z"/>
</g>
</svg>
