<svg xmlns="http://www.w3.org/2000/svg" enable-background="new 0 0 24 24" viewBox="0 0 24 24"><path fill="#146FBF" d="M0.819,21h18.23c0.568,0,1.135-0.462,1.265-1.033l3.659-15.935C24.104,3.462,23.749,3,23.181,3H4.951C4.383,3,3.816,3.462,3.686,4.032L0.027,19.968C-0.104,20.538,0.251,21,0.819,21L0.819,21z"/><path fill="#FFF" d="M4.81,17.012l7.42-5.358v-0.109L7.568,6.598C7.188,6.195,7.227,5.543,7.656,5.14c0.428-0.401,1.086-0.399,1.466,0.004l5.594,5.935c0.317,0.337,0.341,0.846,0.09,1.239c-0.076,0.154-0.234,0.322-0.514,0.519L6.063,18.73c-0.449,0.326-1.094,0.205-1.44-0.27C4.277,17.985,4.36,17.337,4.81,17.012L4.81,17.012z"/><path fill="#DEDEDE" d="M14.966,11.601H12.23v0.053l-7.42,5.358c-0.45,0.325-0.533,0.974-0.187,1.448c0.215,0.295,0.545,0.453,0.871,0.453c0.2,0,0.399-0.059,0.569-0.183l8.229-5.893c0.28-0.196,0.438-0.364,0.514-0.519C14.946,12.099,15.001,11.843,14.966,11.601L14.966,11.601z"/><path fill="#1161A6" d="M12.01,18.546c-0.516,0-0.934-0.412-0.934-0.92c0.003-0.509,0.417-0.921,0.928-0.921h0.006h4.433h0.006c0.511,0,0.925,0.412,0.928,0.921c-0.003,0.508-0.417,0.92-0.928,0.92h-0.006H12.01L12.01,18.546z M22.235,11.601h-7.269c0.035,0.242-0.02,0.498-0.16,0.718c-0.076,0.154-0.234,0.322-0.514,0.519L6.063,18.73c-0.17,0.124-0.369,0.183-0.569,0.183c-0.327,0-0.656-0.158-0.871-0.453c-0.346-0.475-0.263-1.123,0.187-1.448l7.42-5.358v-0.053H1.948l-1.921,8.367C-0.104,20.538,0.251,21,0.819,21h18.23c0.568,0,1.135-0.462,1.265-1.033L22.235,11.601L22.235,11.601z"/><path fill="#FFF" d="M16.449,16.705c0.51,0,0.925,0.412,0.927,0.921c-0.003,0.508-0.417,0.92-0.927,0.92h-0.006H12.01c-0.516,0-0.934-0.412-0.934-0.92c0.003-0.509,0.417-0.921,0.927-0.921h0.006h4.433H16.449L16.449,16.705z"/><path fill="#DEDEDE" d="M17.377,17.625h-6.301v0.001c0,0.508,0.418,0.92,0.934,0.92h4.433h0.006C16.96,18.546,17.374,18.134,17.377,17.625L17.377,17.625L17.377,17.625z"/></svg>