<svg xmlns="http://www.w3.org/2000/svg" width="256" height="256"><path style="stroke:none;fill-rule:nonzero;fill:#9b4f96;fill-opacity:1" d="M230.8 61.398 134.2 5.801c-1.598-1-3.802-1.403-6.2-1.403s-4.602.602-6.2 1.403l-96 55.8c-3.402 2-5.8 7-5.8 10.797v111.403c0 2.199.398 4.8 2 7l213.602-124c-1.204-2.403-3-4.2-4.801-5.403Zm0 0"/><path style="stroke:none;fill-rule:nonzero;fill:#68217a;fill-opacity:1" d="M21.398 190.602c1 1.597 2.403 3 3.801 3.796l96.403 55.801c1.597 1 3.796 1.403 6.199 1.403 2.398 0 4.597-.602 6.199-1.403l96-55.8c3.398-2 5.8-7 5.8-10.797V72.199c0-1.8-.198-3.8-1.198-5.597Zm0 0"/><path style="stroke:none;fill-rule:nonzero;fill:#fff;fill-opacity:1" d="M170.602 152.2C162.199 167 146.199 177 128 177c-27 0-49-22-49-49s22-49 49-49c18.2 0 34.2 10 42.602 25l26-15C183 65.2 157.398 49 128 49c-43.602 0-79 35.398-79 79s35.398 79 79 79c29.2 0 54.8-16 68.398-39.602ZM194 132.397l1.8-8.597h-8.402v-9.403h10.204L200 102h9.8l-2.402 12.2H215l2.398-12.2H227l-2.398 12.2h4.796v9.402h-6.597L221 132.199h8.398v9.403H219.2l-2.398 12H207l2.398-12h-7.597l-2.403 12h-9.597l2.398-12h-4.8v-9.403H194Zm9.602 0h7.597l1.801-8.597h-7.602Zm0 0"/></svg>