<svg xmlns="http://www.w3.org/2000/svg" width="256" height="256"><path style="stroke:none;fill-rule:nonzero;fill:#00d2b8;fill-opacity:1" d="M70.535 69.695 53.988 53.148l.07 119.602.2 5.59c.082 2.629.566 5.597 1.383 8.676l131.101 46.226 32.774-14.52.011-.038L70.535 69.695"/><path style="stroke:none;fill-rule:nonzero;fill:#55ddca;fill-opacity:1" d="m55.64 187.016.008.007c-.007-.054-.035-.117-.035-.171 0 .054.008.109.028.164Zm163.876 31.707-32.774 14.52-131.094-46.22c2.504 9.606 8.047 20.407 14.012 26.313l42.785 42.539 95.13.125 11.952-37.316Zm0 0"/><path style="stroke:none;fill-rule:nonzero;fill:#0081c6;fill-opacity:1" d="M3.035 130.117c-4.238 4.52-2.133 13.848 4.688 20.723L37.14 180.5l18.5 6.516c-.817-3.078-1.301-6.047-1.383-8.676l-.2-5.59-.07-119.602Zm0 0"/><path style="stroke:none;fill-rule:nonzero;fill:#0079b3;fill-opacity:1" d="M187.82 54.688c-3.078-.79-6.027-1.274-8.699-1.36l-5.91-.203-119.223.016 165.555 165.543h.016l14.539-32.805L187.82 54.688"/><path style="stroke:none;fill-rule:nonzero;fill:#00a4e4;fill-opacity:1" d="M187.672 54.652c.062.016.113.035.152.04l-.004-.005c-.035-.019-.086-.019-.148-.035Zm26.445 14.078c-6.008-6.054-16.664-11.562-26.293-14.039l46.274 131.188-14.54 32.805h-.015l35.531-11.348.078-97.414Zm0 0"/><path style="stroke:none;fill-rule:nonzero;fill:#00d2b8;fill-opacity:1" d="M181.34 36.297 151.684 6.863c-6.86-6.797-16.192-8.91-20.7-4.683L53.988 53.14l119.223-.015 5.91.203c2.672.086 5.621.57 8.7 1.36Zm0 0"/></svg>