<svg xmlns="http://www.w3.org/2000/svg" width="256" height="256"><path style="stroke:none;fill-rule:nonzero;fill:#fff;fill-opacity:1" d="M38.398 0h179.204C238.809 0 256 17.191 256 38.398v179.204C256 238.809 238.809 256 217.602 256H38.398C17.191 256 0 238.809 0 217.602V38.398C0 17.191 17.191 0 38.398 0Zm0 0"/><path style="stroke:none;fill-rule:nonzero;fill:#00acd7;fill-opacity:1" d="M154 110c.5 1-.5 1-1 1l-17 4.5c-1.5 1-2.5-.5-2.5-.5-10.5-13-32.5-4-33.5 15-1 18 22.5 25 33.5 7h-19c-1.5 0-4-.5-1.5-5l4-8.5c1-2 1.5-2 4.5-2h35c0 40.5-45 58.5-69 34-11-11.5-14.5-37.5 8-56 18-14.5 48-14.5 58.5 10.5m8 48c-22.5-19.5-10.5-60 25-66.5 36.5-6.5 52.5 27.5 38 53-12 21.5-44 30.5-63 13.5m47-25.5c4.5-12.5-4.5-24.5-18-23.5-15 1.5-25.5 21-16 32.5 9.5 11 29 6 34-9m-160.5-1v-.5l1-2.5 1-.5H71l.5.5-.5 2.5-.5.5h-22m-24-9s-1 0-.5-.5l2-3 1-.5h46l.5.5-1 2.5-.5.5-47.5.5m15-9.5-.5-.5 2.5-2.5 1-.5h36v.5l-1.5 2.5-1 .5H39.5"/></svg>