<svg xmlns="http://www.w3.org/2000/svg" width="256" height="256"><path style="stroke:none;fill-rule:nonzero;fill:#0074bd;fill-opacity:1" d="M105.16 135.633s-6.566 3.824 4.684 5.113c13.629 1.559 20.594 1.332 35.61-1.504 0 0 3.956 2.473 9.472 4.617-33.672 14.426-76.211-.836-49.766-8.226Zm-4.117-18.828s-7.367 5.457 3.89 6.62c14.56 1.505 26.055 1.626 45.958-2.206 0 0 2.746 2.793 7.074 4.316-40.703 11.906-86.043.938-56.922-8.73Zm0 0"/><path style="stroke:none;fill-rule:nonzero;fill:#ea2d2e;fill-opacity:1" d="M135.73 84.863c8.301 9.555-2.175 18.149-2.175 18.149s21.066-10.875 11.39-24.496c-9.039-12.7-15.965-19.004 21.543-40.758 0 0-58.875 14.699-30.758 47.105Zm0 0"/><path style="stroke:none;fill-rule:nonzero;fill:#0074bd;fill-opacity:1" d="M180.266 149.563s4.863 4.007-5.36 7.109c-19.43 5.887-80.886 7.664-97.957.234-6.133-2.672 5.375-6.375 8.992-7.152 3.774-.816 5.93-.668 5.93-.668-6.824-4.805-44.11 9.437-18.937 13.523 68.648 11.125 125.132-5.011 107.332-13.047Zm-71.942-52.27s-31.258 7.426-11.066 10.129c8.527 1.137 25.515.875 41.351-.453 12.938-1.086 25.922-3.406 25.922-3.406s-4.558 1.957-7.86 4.207c-31.75 8.351-93.066 4.46-75.413-4.075 14.926-7.222 27.066-6.402 27.066-6.402Zm56.074 31.34c32.274-16.762 17.348-32.875 6.938-30.703-2.547.53-3.691.992-3.691.992s.949-1.488 2.753-2.129c20.606-7.238 36.45 21.363-6.64 32.691 0 0 .492-.449.64-.851Zm0 0"/><path style="stroke:none;fill-rule:nonzero;fill:#ea2d2e;fill-opacity:1" d="M144.95 2.625s17.866 17.879-16.954 45.363c-27.926 22.055-6.367 34.63-.012 48.996-16.3-14.707-28.257-27.656-20.238-39.703 11.781-17.683 44.41-26.261 37.203-54.656Zm0 0"/><path style="stroke:none;fill-rule:nonzero;fill:#0074bd;fill-opacity:1" d="M111.496 174.078c30.969 1.98 78.54-1.101 79.664-15.758 0 0-2.164 5.555-25.597 9.965-26.434 4.977-59.043 4.399-78.38 1.203 0 0 3.958 3.282 24.313 4.59Zm0 0"/><path style="stroke:none;fill-rule:nonzero;fill:#ea2d2e;fill-opacity:1" d="M189.73 200.363h-.94v-.527h2.538v.527h-.941v2.633h-.657Zm5.07.13h-.01l-.935 2.503h-.433l-.93-2.504h-.012v2.504h-.62v-3.16h.913l.86 2.234.863-2.234h.91v3.16h-.605Zm-88.378 29.581c-2.918 2.531-6.008 3.957-8.781 3.957-3.95 0-6.09-2.375-6.09-6.172 0-4.109 2.293-7.12 11.476-7.12h3.395Zm8.062 9.098v-28.156c0-7.2-4.105-11.946-13.996-11.946-5.77 0-10.832 1.426-14.945 3.243l1.184 4.988c3.242-1.192 7.43-2.293 11.543-2.293 5.699 0 8.152 2.293 8.152 7.039v3.558h-2.852c-13.84 0-20.086 5.372-20.086 13.446 0 6.96 4.118 10.914 11.868 10.914 4.976 0 8.699-2.059 12.175-5.067l.63 4.274Zm26.903 0h-10.051l-12.106-39.379h8.786l7.511 24.195 1.668 7.274c3.793-10.52 6.48-21.196 7.825-31.469h8.542c-2.285 12.965-6.406 27.195-12.175 39.379Zm38.578-9.098c-2.93 2.531-6.02 3.957-8.785 3.957-3.953 0-6.09-2.375-6.09-6.172 0-4.109 2.297-7.12 11.469-7.12h3.402v9.335Zm8.066 9.098v-28.156c0-7.2-4.12-11.946-14-11.946-5.777 0-10.836 1.426-14.949 3.243l1.188 4.988c3.238-1.192 7.433-2.293 11.546-2.293 5.692 0 8.149 2.293 8.149 7.039v3.558h-2.848c-13.847 0-20.09 5.372-20.09 13.446 0 6.96 4.11 10.914 11.86 10.914 4.98 0 8.699-2.059 12.18-5.067l.636 4.274Zm-113.386 6.691c-2.293 3.356-6.012 6.016-10.075 7.512l-3.976-4.688c3.093-1.59 5.742-4.152 6.976-6.539 1.063-2.125 1.504-4.859 1.504-11.402v-44.965h8.57v44.348c0 8.75-.695 12.285-3 15.734Zm0 0"/></svg>