<svg xmlns="http://www.w3.org/2000/svg" width="256" height="256"><path style="fill:#f7df1e;fill-opacity:1;stroke:none" d="M0 0h256v256H0z"/><path style="stroke:none;fill-rule:nonzero;fill:#000;fill-opacity:1" d="m67.313 213.934 19.59-11.86c3.78 6.703 7.218 12.371 15.464 12.371 7.906 0 12.89-3.09 12.89-15.117v-81.8h24.055v82.14c0 24.918-14.605 36.258-35.914 36.258-19.246 0-30.418-9.965-36.085-21.996m85.07-2.575 19.586-11.343c5.156 8.422 11.86 14.61 23.715 14.61 9.968 0 16.324-4.985 16.324-11.86 0-8.246-6.528-11.168-17.528-15.98l-6.011-2.579c-17.36-7.387-28.871-16.668-28.871-36.258 0-18.043 13.746-31.793 35.226-31.793 15.297 0 26.293 5.328 34.2 19.246l-18.735 12.032c-4.125-7.39-8.59-10.309-15.465-10.309-7.047 0-11.512 4.469-11.512 10.309 0 7.218 4.465 10.14 14.778 14.61l6.012 2.573c20.453 8.766 31.964 17.703 31.964 37.805 0 21.656-17.011 33.512-39.867 33.512-22.34 0-36.773-10.657-43.82-24.575"/></svg>