<svg xmlns="http://www.w3.org/2000/svg" width="256" height="256"><path style="stroke:none;fill-rule:nonzero;fill:#146fbf;fill-opacity:1" d="M8.734 224h194.453c6.06 0 12.11-4.93 13.497-11.02L255.71 43.008C257.109 36.93 253.324 32 247.266 32H52.813c-6.06 0-12.11 4.93-13.497 11.008L.29 212.992C-1.109 219.07 2.676 224 8.734 224Zm0 0"/><path style="stroke:none;fill-rule:nonzero;fill:#fff;fill-opacity:1" d="m51.309 181.46 79.144-57.151v-1.16l-49.726-52.77c-4.055-4.3-3.637-11.254.937-15.55 4.566-4.278 11.582-4.259 15.637.042l59.668 63.305c3.383 3.594 3.64 9.023.96 13.215-.808 1.644-2.495 3.437-5.48 5.539l-87.777 62.855c-4.79 3.48-11.668 2.188-15.36-2.879-3.69-5.066-2.804-11.976 1.997-15.445Zm0 0"/><path style="stroke:none;fill-rule:nonzero;fill:#dedede;fill-opacity:1" d="M159.637 123.742h-29.184v.567L51.31 181.46c-4.801 3.469-5.688 10.39-1.996 15.445 2.292 3.149 5.812 4.832 9.289 4.832 2.132 0 4.257-.629 6.07-1.953l87.777-62.855c2.985-2.094 4.672-3.883 5.48-5.54 1.497-2.335 2.083-5.066 1.708-7.648Zm0 0"/><path style="stroke:none;fill-rule:nonzero;fill:#1161a6;fill-opacity:1" d="M128.105 197.824c-5.503 0-9.96-4.394-9.96-9.812.03-5.43 4.449-9.825 9.898-9.825h47.414c5.45 0 9.867 4.395 9.898 9.825-.03 5.418-4.449 9.812-9.898 9.812Zm109.067-74.082h-77.535c.375 2.582-.211 5.313-1.707 7.66-.809 1.645-2.496 3.434-5.48 5.536l-87.778 62.847c-1.813 1.324-3.938 1.953-6.07 1.953-3.489 0-6.997-1.683-9.29-4.832-3.69-5.066-2.804-11.976 1.997-15.445l79.144-57.152v-.567H20.777L.29 212.992C-1.109 219.07 2.676 224 8.734 224h194.453c6.06 0 12.11-4.93 13.497-11.02Zm0 0"/><path style="stroke:none;fill-rule:nonzero;fill:#fff;fill-opacity:1" d="M175.457 178.188c5.438 0 9.867 4.394 9.887 9.824-.031 5.418-4.45 9.812-9.887 9.812h-47.352c-5.503 0-9.96-4.394-9.96-9.812.03-5.43 4.449-9.825 9.886-9.825Zm0 0"/><path style="stroke:none;fill-rule:nonzero;fill:#dedede;fill-opacity:1" d="M185.355 188h-67.21v.012c0 5.418 4.457 9.812 9.96 9.812h47.352c5.45 0 9.867-4.394 9.898-9.824Zm0 0"/></svg>