<svg xmlns="http://www.w3.org/2000/svg" width="256" height="256"><defs><linearGradient id="a" gradientUnits="userSpaceOnUse" x1=".13" y1=".12" x2=".796" y2=".782" gradientTransform="matrix(189.83984 0 0 191.26172 0 0)"><stop offset="0" style="stop-color:#387eb8;stop-opacity:1"/><stop offset="1" style="stop-color:#366994;stop-opacity:1"/></linearGradient><linearGradient id="b" gradientUnits="userSpaceOnUse" x1=".191" y1=".206" x2=".907" y2=".884" gradientTransform="matrix(189.83594 0 0 191.26172 66.16 64.738)"><stop offset="0" style="stop-color:#ffe052;stop-opacity:1"/><stop offset="1" style="stop-color:#ffc331;stop-opacity:1"/></linearGradient></defs><path style="stroke:none;fill-rule:nonzero;fill:url(#a)" d="M127.078 0C62.09 0 66.141 28.328 66.141 28.328l.07 29.352h62.027v8.812H41.594S0 61.754 0 127.668s36.297 63.582 36.297 63.582H57.96v-30.586s-1.164-36.488 35.719-36.488h61.507s34.56.558 34.56-33.574V34.164S194.996 0 127.077 0Zm-34.2 19.738c5.321.004 9.892 3.785 10.927 9.028 1.03 5.242-1.762 10.488-6.676 12.53-4.91 2.044-10.578.313-13.527-4.132-2.954-4.445-2.372-10.367 1.386-14.144a11.108 11.108 0 0 1 7.89-3.282Zm0 0"/><path style="stroke:none;fill-rule:nonzero;fill:url(#b)" d="M128.922 256c64.992 0 60.933-28.34 60.933-28.34l-.07-29.351h-62.02v-8.801h86.645s41.586 4.742 41.586-61.176c0-65.922-36.3-63.582-36.3-63.582h-21.657v30.586s1.168 36.488-35.719 36.488h-61.507s-34.56-.558-34.56 33.578v56.45S61.017 256 128.923 256Zm34.2-19.734c-5.321-.004-9.895-3.782-10.93-9.028-1.036-5.242 1.757-10.492 6.671-12.535 4.914-2.047 10.578-.316 13.535 4.129 2.954 4.445 2.372 10.371-1.386 14.148a11.128 11.128 0 0 1-7.89 3.286Zm0 0"/></svg>