<svg xmlns="http://www.w3.org/2000/svg" width="256" height="256"><defs><linearGradient id="a" gradientUnits="userSpaceOnUse" x1="157.08" y1="2382.05" x2="131.682" y2="2426.892" gradientTransform="matrix(2 0 0 -2 -95 5034)"><stop offset="0" style="stop-color:#fb7655;stop-opacity:1"/><stop offset="0" style="stop-color:#fb7655;stop-opacity:1"/><stop offset=".41" style="stop-color:#e42b1e;stop-opacity:1"/><stop offset=".99" style="stop-color:#900;stop-opacity:1"/><stop offset="1" style="stop-color:#900;stop-opacity:1"/></linearGradient><linearGradient id="b" gradientUnits="userSpaceOnUse" x1="169.731" y1="2419.72" x2="136.998" y2="2441.685" gradientTransform="matrix(2 0 0 -2 -95 5034)"><stop offset="0" style="stop-color:#871101;stop-opacity:1"/><stop offset="0" style="stop-color:#871101;stop-opacity:1"/><stop offset=".99" style="stop-color:#911209;stop-opacity:1"/><stop offset="1" style="stop-color:#911209;stop-opacity:1"/></linearGradient><linearGradient id="c" gradientUnits="userSpaceOnUse" x1="143.542" y1="2380.69" x2="110.81" y2="2402.655" gradientTransform="matrix(2 0 0 -2 -95 5034)"><stop offset="0" style="stop-color:#871101;stop-opacity:1"/><stop offset="0" style="stop-color:#871101;stop-opacity:1"/><stop offset=".99" style="stop-color:#911209;stop-opacity:1"/><stop offset="1" style="stop-color:#911209;stop-opacity:1"/></linearGradient><linearGradient id="d" gradientUnits="userSpaceOnUse" x1="74.817" y1="2435.622" x2="79.891" y2="2402.644" gradientTransform="matrix(2 0 0 -2 -95 5034)"><stop offset="0" style="stop-color:#fff;stop-opacity:1"/><stop offset="0" style="stop-color:#fff;stop-opacity:1"/><stop offset=".23" style="stop-color:#e57252;stop-opacity:1"/><stop offset=".46" style="stop-color:#de3b20;stop-opacity:1"/><stop offset=".99" style="stop-color:#a60003;stop-opacity:1"/><stop offset="1" style="stop-color:#a60003;stop-opacity:1"/></linearGradient><linearGradient id="e" gradientUnits="userSpaceOnUse" x1="109.719" y1="2466.413" x2="111.589" y2="2432.757" gradientTransform="matrix(2 0 0 -2 -95 5034)"><stop offset="0" style="stop-color:#fff;stop-opacity:1"/><stop offset="0" style="stop-color:#fff;stop-opacity:1"/><stop offset=".23" style="stop-color:#e4714e;stop-opacity:1"/><stop offset=".56" style="stop-color:#be1a0d;stop-opacity:1"/><stop offset=".99" style="stop-color:#a80d00;stop-opacity:1"/><stop offset="1" style="stop-color:#a80d00;stop-opacity:1"/></linearGradient><linearGradient id="f" gradientUnits="userSpaceOnUse" x1="140.691" y1="2497.523" x2="146.289" y2="2473.401" gradientTransform="matrix(2 0 0 -2 -95 5034)"><stop offset="0" style="stop-color:#fff;stop-opacity:1"/><stop offset="0" style="stop-color:#fff;stop-opacity:1"/><stop offset=".18" style="stop-color:#e46342;stop-opacity:1"/><stop offset=".4" style="stop-color:#c82410;stop-opacity:1"/><stop offset=".99" style="stop-color:#a80d00;stop-opacity:1"/><stop offset="1" style="stop-color:#a80d00;stop-opacity:1"/></linearGradient><linearGradient id="g" gradientUnits="userSpaceOnUse" x1="123.6" y1="2506.018" x2="147.719" y2="2518.077" gradientTransform="matrix(2 0 0 -2 -95 5034)"><stop offset="0" style="stop-color:#fff;stop-opacity:1"/><stop offset="0" style="stop-color:#fff;stop-opacity:1"/><stop offset=".54" style="stop-color:#c81f11;stop-opacity:1"/><stop offset=".99" style="stop-color:#bf0905;stop-opacity:1"/><stop offset="1" style="stop-color:#bf0905;stop-opacity:1"/></linearGradient><linearGradient id="h" gradientUnits="userSpaceOnUse" x1="53.674" y1="2444.028" x2="55.66" y2="2424.153" gradientTransform="matrix(2 0 0 -2 -95 5034)"><stop offset="0" style="stop-color:#fff;stop-opacity:1"/><stop offset="0" style="stop-color:#fff;stop-opacity:1"/><stop offset=".31" style="stop-color:#de4024;stop-opacity:1"/><stop offset=".99" style="stop-color:#bf190b;stop-opacity:1"/><stop offset="1" style="stop-color:#bf190b;stop-opacity:1"/></linearGradient><linearGradient id="i" gradientUnits="userSpaceOnUse" x1="40.026" y1="2418.781" x2="133.345" y2="2514.739" gradientTransform="matrix(2 0 0 -2 -95 5034)"><stop offset="0" style="stop-color:#bd0012;stop-opacity:1"/><stop offset="0" style="stop-color:#bd0012;stop-opacity:1"/><stop offset=".07" style="stop-color:#fff;stop-opacity:1"/><stop offset=".17" style="stop-color:#fff;stop-opacity:1"/><stop offset=".27" style="stop-color:#c82f1c;stop-opacity:1"/><stop offset=".33" style="stop-color:#820c01;stop-opacity:1"/><stop offset=".46" style="stop-color:#a31601;stop-opacity:1"/><stop offset=".72" style="stop-color:#b31301;stop-opacity:1"/><stop offset=".99" style="stop-color:#e82609;stop-opacity:1"/><stop offset="1" style="stop-color:#e82609;stop-opacity:1"/></linearGradient><linearGradient id="j" gradientUnits="userSpaceOnUse" x1="111.507" y1="2409.102" x2="83.398" y2="2416.039" gradientTransform="matrix(2 0 0 -2 -95 5034)"><stop offset="0" style="stop-color:#8c0c01;stop-opacity:1"/><stop offset="0" style="stop-color:#8c0c01;stop-opacity:1"/><stop offset=".54" style="stop-color:#990c00;stop-opacity:1"/><stop offset=".99" style="stop-color:#a80d0e;stop-opacity:1"/><stop offset="1" style="stop-color:#a80d0e;stop-opacity:1"/></linearGradient><linearGradient id="k" gradientUnits="userSpaceOnUse" x1="159.785" y1="2442.837" x2="134.814" y2="2465.217" gradientTransform="matrix(2 0 0 -2 -95 5034)"><stop offset="0" style="stop-color:#7e110b;stop-opacity:1"/><stop offset="0" style="stop-color:#7e110b;stop-opacity:1"/><stop offset=".99" style="stop-color:#9e0c00;stop-opacity:1"/><stop offset="1" style="stop-color:#9e0c00;stop-opacity:1"/></linearGradient><linearGradient id="l" gradientUnits="userSpaceOnUse" x1="168.959" y1="2483.901" x2="156.521" y2="2497.199" gradientTransform="matrix(2 0 0 -2 -95 5034)"><stop offset="0" style="stop-color:#79130d;stop-opacity:1"/><stop offset="0" style="stop-color:#79130d;stop-opacity:1"/><stop offset=".99" style="stop-color:#9e120b;stop-opacity:1"/><stop offset="1" style="stop-color:#9e120b;stop-opacity:1"/></linearGradient><linearGradient id="o" gradientUnits="userSpaceOnUse" x1="67.509" y1="2393.115" x2="57.373" y2="2427.506" gradientTransform="matrix(2 0 0 -2 -95 5034)"><stop offset="0" style="stop-color:#8b2114;stop-opacity:1"/><stop offset="0" style="stop-color:#8b2114;stop-opacity:1"/><stop offset=".43" style="stop-color:#9e100a;stop-opacity:1"/><stop offset=".99" style="stop-color:#b3100c;stop-opacity:1"/><stop offset="1" style="stop-color:#b3100c;stop-opacity:1"/></linearGradient><linearGradient id="p" gradientUnits="userSpaceOnUse" x1="145.272" y1="2507.076" x2="167.996" y2="2497.045" gradientTransform="matrix(2 0 0 -2 -95 5034)"><stop offset="0" style="stop-color:#b31000;stop-opacity:1"/><stop offset="0" style="stop-color:#b31000;stop-opacity:1"/><stop offset=".44" style="stop-color:#910f08;stop-opacity:1"/><stop offset=".99" style="stop-color:#791c12;stop-opacity:1"/><stop offset="1" style="stop-color:#791c12;stop-opacity:1"/></linearGradient><radialGradient id="m" gradientUnits="userSpaceOnUse" cx="138.703" cy="2464.789" fx="138.703" fy="2464.789" r="30.601" gradientTransform="matrix(2 0 0 -2 -95 5034)"><stop offset="0" style="stop-color:#a80d00;stop-opacity:1"/><stop offset="0" style="stop-color:#a80d00;stop-opacity:1"/><stop offset=".99" style="stop-color:#7e0e08;stop-opacity:1"/><stop offset="1" style="stop-color:#7e0e08;stop-opacity:1"/></radialGradient><radialGradient id="n" gradientUnits="userSpaceOnUse" cx="96.325" cy="2424.465" fx="96.325" fy="2424.465" r="40.679" gradientTransform="matrix(2 0 0 -2 -95 5034)"><stop offset="0" style="stop-color:#a30c00;stop-opacity:1"/><stop offset="0" style="stop-color:#a30c00;stop-opacity:1"/><stop offset=".99" style="stop-color:#800e08;stop-opacity:1"/><stop offset="1" style="stop-color:#800e08;stop-opacity:1"/></radialGradient></defs><path style="stroke:none;fill-rule:nonzero;fill:url(#a)" d="M194.156 166.43 56.68 248.062l178.007-12.082 13.708-179.488Zm0 0"/><path style="stroke:none;fill-rule:nonzero;fill:url(#b)" d="M234.977 235.86 219.68 130.261l-41.676 55.027Zm0 0"/><path style="stroke:none;fill-rule:nonzero;fill:url(#c)" d="m235.184 235.86-112.086-8.798-65.82 20.77Zm0 0"/><path style="stroke:none;fill-rule:nonzero;fill:url(#d)" d="m57.434 247.855 28.004-91.734-61.622 13.176Zm0 0"/><path style="stroke:none;fill-rule:nonzero;fill:url(#e)" d="M177.992 185.594 152.227 84.676l-73.73 69.113Zm0 0"/><path style="stroke:none;fill-rule:nonzero;fill:url(#f)" d="m242.55 86.094-69.698-56.922-19.407 62.742Zm0 0"/><path style="stroke:none;fill-rule:nonzero;fill:url(#g)" d="m209.957 8.875-40.996 22.652L143.1 8.57Zm0 0"/><path style="stroke:none;fill-rule:nonzero;fill:url(#h)" d="m7.605 200.066 17.172-31.316-13.894-37.309Zm0 0"/><path style="stroke:none;fill-rule:nonzero;fill:#fff;fill-opacity:1" d="m9.96 130.262 13.977 39.64 60.727-13.62L154 91.843l19.566-62.149-30.804-21.758-52.383 19.606c-16.504 15.348-48.524 45.719-49.68 46.293-1.144.578-21.148 38.387-30.738 56.426Zm0 0"/><path style="stroke:none;fill-rule:nonzero;fill:url(#i)" d="M59.04 59.043C94.8 23.582 140.91 2.629 158.61 20.48c17.683 17.856-1.07 61.243-36.837 96.692-35.77 35.45-81.308 57.558-98.988 39.703-17.695-17.84.485-62.383 36.254-97.832Zm0 0"/><path style="stroke:none;fill-rule:nonzero;fill:url(#j)" d="m57.434 247.816 27.78-92.023 92.27 29.64c-33.359 31.286-70.464 57.731-120.05 62.383Zm0 0"/><path style="stroke:none;fill-rule:nonzero;fill:url(#k)" d="m154.125 91.66 23.688 93.824c27.867-29.3 52.878-60.8 65.125-99.765Zm0 0"/><path style="stroke:none;fill-rule:nonzero;fill:url(#l)" d="M242.695 86.195c9.48-28.61 11.668-69.652-33.035-77.27l-36.676 20.259Zm0 0"/><path style="stroke:none;fill-rule:nonzero;fill:#9e1209;fill-opacity:1" d="M7.605 199.656c1.31 47.215 35.375 47.918 49.887 48.332l-33.515-78.277Zm0 0"/><path style="stroke:none;fill-rule:nonzero;fill:url(#m)" d="M154.258 91.809c21.414 13.16 64.57 39.593 65.445 40.082 1.36.765 18.606-29.086 22.52-45.953Zm0 0"/><path style="stroke:none;fill-rule:nonzero;fill:url(#n)" d="m85.18 155.793 37.136 71.656c21.961-11.91 39.16-26.422 54.91-41.965Zm0 0"/><path style="stroke:none;fill-rule:nonzero;fill:url(#o)" d="m23.828 169.809-5.262 62.66c9.926 13.562 23.586 14.742 37.918 13.683-10.367-25.797-31.074-77.39-32.656-76.343Zm0 0"/><path style="stroke:none;fill-rule:nonzero;fill:url(#p)" d="m172.77 29.34 73.78 10.355c-3.937-16.687-16.03-27.457-36.64-30.82Zm0 0"/></svg>