<svg xmlns="http://www.w3.org/2000/svg" width="256" height="256"><path style="stroke:none;fill-rule:nonzero;fill:#000;fill-opacity:1" d="m254.156 124.871-10.738-6.652c-.09-1.047-.191-2.09-.305-3.13l9.246-8.612a3.676 3.676 0 0 0 1.106-3.422 3.663 3.663 0 0 0-2.332-2.743L239.32 95.91c-.297-1.023-.61-2.039-.925-3.058l7.363-10.227c.75-1.04.906-2.39.414-3.57a3.707 3.707 0 0 0-2.813-2.235l-12.449-2.027a95.02 95.02 0 0 0-1.5-2.79l5.238-11.495a3.702 3.702 0 0 0-.289-3.594 3.691 3.691 0 0 0-3.207-1.644l-12.648.44a97.948 97.948 0 0 0-1.996-2.42l2.914-12.306a3.707 3.707 0 0 0-4.461-4.457l-12.305 2.91a99.723 99.723 0 0 0-2.426-1.996l.442-12.648a3.677 3.677 0 0 0-1.64-3.203 3.707 3.707 0 0 0-3.598-.293L183.96 26.53a137.155 137.155 0 0 0-2.79-1.496l-2.03-12.453a3.666 3.666 0 0 0-2.235-2.812 3.686 3.686 0 0 0-3.57.414l-10.227 7.363c-1.007-.32-2.02-.629-3.035-.922l-4.402-11.813a3.686 3.686 0 0 0-2.738-2.34 3.711 3.711 0 0 0-3.426 1.11l-8.61 9.246c-1.043-.117-2.09-.223-3.132-.308l-6.653-10.762a3.706 3.706 0 0 0-3.156-1.75c-1.293 0-2.473.66-3.133 1.75l-6.652 10.762c-1.047.085-2.094.19-3.133.308l-8.61-9.246a3.711 3.711 0 0 0-3.425-1.11 3.675 3.675 0 0 0-2.738 2.34l-4.407 11.813c-1.02.293-2.035.605-3.03.922l-10.227-7.363a3.67 3.67 0 0 0-3.57-.414 3.703 3.703 0 0 0-2.239 2.812l-2.027 12.453c-.942.485-1.871.988-2.79 1.496L60.5 21.297a3.703 3.703 0 0 0-3.594.293 3.677 3.677 0 0 0-1.64 3.203l.437 12.648c-.816.653-1.625 1.32-2.426 1.996l-12.304-2.91a3.712 3.712 0 0 0-3.473.985 3.702 3.702 0 0 0-.988 3.472l2.886 12.305c-.671.797-1.336 1.606-1.988 2.422l-12.648-.441a3.721 3.721 0 0 0-3.203 1.644 3.698 3.698 0 0 0-.293 3.594L26.5 72.004c-.508.926-1.012 1.851-1.5 2.789L12.55 76.82a3.672 3.672 0 0 0-2.816 2.235 3.694 3.694 0 0 0 .418 3.57l7.364 10.227c-.32 1.011-.633 2.027-.926 3.058l-11.817 4.403a3.695 3.695 0 0 0-1.223 6.164l9.247 8.613c-.117 1.039-.219 2.086-.305 3.129L1.75 124.87A3.71 3.71 0 0 0 0 128.027c0 1.297.664 2.473 1.75 3.133l10.742 6.653c.086 1.046.188 2.093.305 3.132l-9.246 8.61a3.699 3.699 0 0 0-1.106 3.425 3.68 3.68 0 0 0 2.328 2.739l11.817 4.406c.293 1.02.605 2.035.926 3.055l-7.364 10.226a3.692 3.692 0 0 0 2.422 5.809l12.453 2.023c.485.946.985 1.875 1.496 2.79L21.29 195.5a3.71 3.71 0 0 0 .293 3.598 3.69 3.69 0 0 0 3.203 1.64l12.625-.445c.656.824 1.32 1.629 1.996 2.43l-2.886 12.304a3.665 3.665 0 0 0 .984 3.45 3.688 3.688 0 0 0 3.473.98l12.304-2.887c.801.684 1.61 1.344 2.43 1.993l-.441 12.648a3.677 3.677 0 0 0 1.64 3.203c1.063.711 2.422.82 3.598.29l11.472-5.24c.926.516 1.856 1.013 2.79 1.5l2.03 12.454a3.726 3.726 0 0 0 2.235 2.836 3.686 3.686 0 0 0 3.57-.414l10.227-7.363c1.012.32 2.027.636 3.059.93l4.402 11.812a3.683 3.683 0 0 0 2.738 2.332 3.68 3.68 0 0 0 3.426-1.106l8.613-9.246c1.04.121 2.086.219 3.13.313l6.655 10.738a3.687 3.687 0 0 0 3.13 1.754c1.269 0 2.472-.668 3.156-1.754l6.652-10.738c1.047-.094 2.094-.192 3.133-.313l8.613 9.246a3.67 3.67 0 0 0 3.422 1.106 3.677 3.677 0 0 0 2.742-2.332l4.402-11.813c1.024-.293 2.04-.61 3.06-.93l10.222 7.364a3.699 3.699 0 0 0 3.574.414 3.682 3.682 0 0 0 2.234-2.836l2.032-12.453a135.89 135.89 0 0 0 2.789-1.5l11.472 5.238a3.72 3.72 0 0 0 3.598-.289 3.695 3.695 0 0 0 1.64-3.203l-.44-12.649a89.88 89.88 0 0 0 2.425-1.992l12.305 2.887a3.694 3.694 0 0 0 3.472-.98 3.678 3.678 0 0 0 .989-3.45l-2.887-12.304c.672-.801 1.34-1.606 1.988-2.43l12.649.445a3.682 3.682 0 0 0 3.203-1.64 3.697 3.697 0 0 0 .289-3.598l-5.235-11.473c.512-.925 1.012-1.855 1.496-2.789l12.454-2.023a3.656 3.656 0 0 0 2.812-2.238 3.686 3.686 0 0 0-.414-3.57l-7.363-10.227c.316-1.008.629-2.024.922-3.055l11.816-4.406a3.692 3.692 0 0 0 1.227-6.164l-9.246-8.61c.113-1.039.214-2.086.304-3.132l10.738-6.653a3.69 3.69 0 0 0 1.754-3.133c0-1.27-.66-2.468-1.75-3.156Zm-71.918 89.29c-4.11-.888-6.703-4.942-5.824-9.052a7.603 7.603 0 0 1 9.027-5.847c4.11.879 6.727 4.941 5.848 9.05a7.605 7.605 0 0 1-9.027 5.848Zm-3.648-24.708c-3.742-.8-7.434 1.582-8.219 5.332l-3.816 17.809c-11.766 5.332-24.95 8.316-38.649 8.316-14.094 0-27.402-3.105-39.386-8.683l-3.817-17.809c-.8-3.742-4.476-6.137-8.219-5.332l-15.73 3.375a95.199 95.199 0 0 1-8.121-9.586h76.57c.863 0 1.442-.16 1.442-.945v-27.153c0-.789-.579-.945-1.442-.945h-22.387v-17.148h24.196c2.207 0 11.816.632 14.87 12.914.966 3.77 3.087 16.05 4.528 19.988 1.438 4.402 7.29 13.207 13.528 13.207h38.164c.433 0 .894-.047 1.382-.137a96.247 96.247 0 0 1-8.66 10.18l-16.097-3.453Zm-105.922 24.34c-4.11.887-8.148-1.73-9.027-5.848-.88-4.11 1.73-8.168 5.847-9.05a7.605 7.605 0 0 1 9.028 5.847c.875 4.11-1.735 8.172-5.848 9.051ZM43.555 96.129a7.629 7.629 0 0 1-3.864 10.055c-3.84 1.707-8.316-.032-10.03-3.864-1.712-3.836.03-8.343 3.866-10.054 3.84-1.704 8.317.027 10.028 3.863Zm-8.926 21.137 16.387-7.29c3.5-1.554 5.09-5.652 3.523-9.148l-3.375-7.633h13.258v59.688H37.758a93.88 93.88 0 0 1-3.57-25.688c0-3.398.183-6.75.535-10.05Zm71.918-5.797V93.855h31.558c1.633 0 11.524 1.887 11.524 9.27 0 6.14-7.586 8.344-13.824 8.344h-29.356ZM221.28 127.32a93.07 93.07 0 0 1-.258 6.946h-9.613c-.96 0-1.347.632-1.347 1.574v4.402c0 10.371-5.848 12.649-10.985 13.211-4.894.55-10.3-2.047-10.96-5.039-2.888-16.219-7.68-19.668-15.266-25.687 9.418-5.97 19.203-14.797 19.203-26.665 0-12.742-8.73-20.765-14.676-24.707-8.367-5.5-17.613-6.601-20.11-6.601H57.95C71.43 49.73 89.75 39.066 110.301 35.152l11.719 12.282a6.926 6.926 0 0 0 9.808.222l13.113-12.523c27.399 5.113 50.637 22.187 64.094 45.746l-8.98 20.254c-1.547 3.496.03 7.61 3.523 9.148l17.27 7.68c.3 3.059.457 6.168.457 9.297Zm-99.32-102.496c3.031-2.91 7.852-2.789 10.738.246 2.887 3.032 2.79 7.852-.25 10.762-3.035 2.914-7.855 2.79-10.742-.25a7.625 7.625 0 0 1 .254-10.762Zm89.043 71.672c1.703-3.84 6.191-5.578 10.031-3.863a7.618 7.618 0 0 1 3.867 10.055 7.591 7.591 0 0 1-10.03 3.863c-3.84-1.703-5.579-6.215-3.868-10.055Zm0 0"/></svg>