<svg clip-rule="evenodd" fill-rule="evenodd" stroke-linejoin="round" stroke-miterlimit="2" xmlns="http://www.w3.org/2000/svg" viewBox="130 49.98 300.02 300.03"><path d="m427.861 196.33-12.586-7.798c-.106-1.227-.226-2.451-.358-3.669l10.837-10.092c1.101-1.026 1.594-2.546 1.296-4.014-.29-1.476-1.325-2.692-2.732-3.211l-13.848-5.16c-.347-1.199-.711-2.388-1.083-3.584l8.629-11.984c.88-1.218 1.061-2.804.488-4.186-.574-1.384-1.827-2.376-3.297-2.62l-14.593-2.374c-.568-1.106-1.158-2.196-1.755-3.268l6.136-13.475c.627-1.37.498-2.953-.339-4.214-.834-1.25-2.247-1.981-3.755-1.924l-14.823.516c-.765-.957-1.545-1.906-2.339-2.838l3.412-14.421c.344-1.465-.089-3.01-1.156-4.071-1.058-1.061-2.594-1.499-4.071-1.155l-14.421 3.411c-.934-.791-1.883-1.574-2.844-2.339l.519-14.822c.058-1.5-.673-2.924-1.923-3.756-1.253-.837-2.839-.963-4.215-.341l-13.446 6.135c-1.086-.596-2.176-1.187-3.268-1.757l-2.38-14.593c-.24-1.479-1.232-2.735-2.62-3.297-1.385-.576-2.982-.39-4.186.487l-11.984 8.63c-1.181-.376-2.368-.737-3.555-1.081l-5.16-13.847c-.525-1.411-1.74-2.446-3.211-2.738-1.474-.29-2.982.201-4.014 1.296l-10.091 10.837c-1.219-.135-2.446-.258-3.67-.359l-7.798-12.614c-.789-1.276-2.185-2.053-3.699-2.053-1.513 0-2.895.777-3.669 2.053l-7.798 12.614c-1.227.101-2.454.224-3.67.359l-10.092-10.837c-1.023-1.095-2.543-1.586-4.013-1.296-1.477.295-2.692 1.327-3.211 2.738l-5.161 13.847c-1.198.344-2.385.708-3.555 1.081l-11.984-8.63c-1.218-.88-2.806-1.066-4.185-.487-1.385.573-2.38 1.829-2.621 3.297l-2.379 14.593c-1.101.57-2.191 1.158-3.269 1.757l-13.446-6.135c-1.367-.625-2.953-.496-4.214.341-1.25.832-1.981 2.256-1.924 3.756l.516 14.822c-.957.765-1.906 1.548-2.844 2.339l-14.421-3.411c-1.465-.341-3.01.094-4.071 1.155-1.066 1.064-1.499 2.598-1.155 4.071l3.383 14.421c-.788.935-1.568 1.881-2.334 2.838l-14.822-.516c-1.493-.043-2.924.674-3.755 1.924-.838 1.244-.964 2.838-.342 4.214l6.136 13.475c-.597 1.081-1.187 2.17-1.758 3.268l-14.593 2.374c-1.482.241-2.732 1.233-3.297 2.62-.573 1.391-.387 2.982.488 4.186l8.629 11.984c-.375 1.184-.739 2.374-1.083 3.584l-13.848 5.16c-1.405.525-2.439 1.74-2.732 3.211-.292 1.474.198 2.982 1.296 4.014l10.837 10.092c-.135 1.218-.255 2.445-.358 3.669l-12.586 7.798c-1.276.789-2.053 2.182-2.053 3.699 0 1.516.777 2.895 2.053 3.669l12.586 7.798c.103 1.228.223 2.452.358 3.67l-10.837 10.092c-1.098 1.023-1.588 2.543-1.296 4.014.293 1.476 1.327 2.689 2.732 3.21l13.848 5.161c.344 1.198.708 2.388 1.083 3.584l-8.629 11.984c-.877 1.221-1.064 2.806-.488 4.185.577 1.391 1.83 2.383 3.326 2.621l14.593 2.373c.57 1.107 1.155 2.197 1.757 3.269l-6.135 13.446c-.625 1.367-.496 2.953.341 4.214.837 1.253 2.262 1.984 3.756 1.924l14.793-.519c.772.963 1.548 1.906 2.34 2.844l-3.383 14.421c-.344 1.462.089 2.981 1.155 4.042 1.058 1.069 2.598 1.497 4.071 1.153l14.421-3.383c.937.797 1.886 1.571 2.844 2.333l-.516 14.822c-.057 1.5.674 2.925 1.924 3.756 1.244.834 2.838.961 4.214.336l13.446-6.136c1.084.602 2.173 1.187 3.268 1.758l2.38 14.592c.241 1.486 1.233 2.741 2.62 3.326 1.385.576 2.982.39 4.186-.484l11.984-8.63c1.184.376 2.374.743 3.584 1.087l5.16 13.847c.525 1.405 1.74 2.446 3.211 2.732 1.474.298 2.982-.195 4.014-1.296l10.091-10.837c1.219.141 2.446.258 3.67.367l7.798 12.586c.786 1.27 2.182 2.053 3.67 2.053s2.895-.78 3.698-2.053l7.798-12.586c1.227-.109 2.452-.226 3.67-.367l10.092 10.837c1.023 1.101 2.543 1.594 4.013 1.296 1.477-.289 2.692-1.327 3.211-2.732l5.161-13.847c1.198-.344 2.388-.711 3.584-1.087l11.983 8.63c1.219.874 2.807 1.06 4.186.484 1.388-.57 2.38-1.829 2.62-3.326l2.38-14.592c1.101-.571 2.19-1.164 3.268-1.758l13.446 6.136c1.368.625 2.953.498 4.215-.336 1.25-.837 1.978-2.256 1.923-3.756l-.516-14.822c.958-.765 1.907-1.536 2.842-2.333l14.42 3.383c1.465.344 3.011-.084 4.071-1.153 1.067-1.064 1.5-2.592 1.156-4.042l-3.383-14.421c.791-.938 1.571-1.881 2.333-2.844l14.823.519c1.493.06 2.924-.671 3.755-1.924.837-1.25.966-2.841.339-4.214l-6.136-13.446c.599-1.087 1.187-2.176 1.755-3.269l14.593-2.373c1.485-.238 2.735-1.23 3.297-2.621.573-1.384.392-2.981-.488-4.185l-8.629-11.984c.372-1.184.736-2.374 1.083-3.584l13.848-5.161c1.407-.527 2.445-1.74 2.732-3.21.298-1.474-.195-2.982-1.296-4.014l-10.837-10.092c.132-1.218.252-2.445.358-3.67l12.586-7.798c1.276-.785 2.053-2.181 2.053-3.669s-.774-2.896-2.05-3.699zm-84.288 104.644c-4.816-1.038-7.855-5.791-6.823-10.608 1.029-4.816 5.762-7.884 10.579-6.852 4.816 1.029 7.884 5.791 6.852 10.608-1.032 4.816-5.763 7.884-10.579 6.852zm-4.272-28.956c-4.386-.941-8.715 1.852-9.633 6.25l-4.472 20.871c-13.79 6.25-29.243 9.748-45.298 9.748-16.513 0-32.11-3.641-46.158-10.178l-4.472-20.871c-.94-4.387-5.247-7.196-9.633-6.25l-18.434 3.956c-3.412-3.526-6.594-7.282-9.519-11.238h89.736c1.015 0 1.691-.184 1.691-1.107v-31.823c0-.923-.676-1.107-1.691-1.107h-26.233v-20.097h28.354c2.589 0 13.848.74 17.431 15.137 1.127 4.415 3.613 18.808 5.304 23.423 1.686 5.161 8.544 15.482 15.854 15.482h44.725c.507 0 1.049-.058 1.619-.161-3.096 4.215-6.507 8.2-10.148 11.927l-18.865-4.043zm-124.138 28.526c-4.817 1.038-9.547-2.03-10.579-6.852-1.03-4.817 2.029-9.576 6.852-10.608 4.816-1.029 9.547 2.038 10.579 6.852 1.029 4.817-2.033 9.576-6.852 10.608zm-34.117-137.9c1.995 4.501-.034 9.776-4.53 11.783-4.501 1.998-9.747-.035-11.754-4.53s.034-9.776 4.529-11.783c4.502-1.995 9.748.034 11.755 4.53zm-10.464 24.77 19.208-8.543c4.1-1.821 5.963-6.623 4.129-10.723l-3.957-8.945h15.539v69.954h-31.25c-2.72-9.576-4.185-19.667-4.185-30.103 0-3.985.215-7.913.627-11.783zm84.288-6.795v-20.642h36.983c1.913 0 13.504 2.211 13.504 10.866 0 7.196-8.888 9.776-16.199 9.776h-34.403zm134.46 18.578c0 2.741-.101 5.447-.302 8.142h-11.267c-1.126 0-1.579.74-1.579 1.844v5.16c0 12.156-6.852 14.822-12.873 15.482-5.734.645-12.07-2.397-12.844-5.906-3.383-19.008-9.002-23.05-17.89-30.103 11.038-6.995 22.506-17.345 22.506-31.25 0-14.936-10.235-24.34-17.202-28.956-9.805-6.45-20.642-7.741-23.566-7.741h-116.398c15.797-17.603 37.27-30.103 61.353-34.69l13.732 14.392c3.097 3.24 8.228 3.383 11.497.264l15.367-14.679c32.109 5.992 59.345 26.004 75.114 53.612l-10.522 23.739c-1.815 4.099.037 8.916 4.128 10.722l20.241 9.002c.35 3.584.533 7.225.533 10.895zm-116.398-120.125c3.555-3.411 9.202-3.268 12.585.29 3.383 3.555 3.269 9.203-.295 12.614-3.555 3.412-9.203 3.269-12.586-.292-3.383-3.555-3.268-9.203.296-12.615zm104.356 84.002c1.993-4.501 7.254-6.537 11.755-4.53 4.501 1.995 6.536 7.282 4.53 11.783-1.993 4.501-7.254 6.537-11.755 4.53-4.501-1.996-6.537-7.282-4.53-11.783z" fill-rule="nonzero"/></svg>