<svg xmlns="http://www.w3.org/2000/svg" width="256" height="256"><path style="stroke:none;fill-rule:nonzero;fill:#fff;fill-opacity:1" d="m224.55 52.95-80.8-48a30.37 30.37 0 0 0-31.2 0l-80.8 48c-9.648 5.698-15.602 16.3-15.602 27.75v95.948c0 11.454 5.954 22.051 15.602 27.75l80.8 47.954a30.586 30.586 0 0 0 15.598 4.296c5.403 0 10.75-1.449 15.602-4.296l80.8-47.954c9.65-5.75 15.598-16.296 15.598-27.75V80.7c0-11.449-5.949-22.05-15.597-27.75Zm0 0"/><path style="stroke:none;fill-rule:nonzero;fill:#283037;fill-opacity:1" d="m224.55 52.95-80.8-48c-4.8-2.848-10.2-4.302-15.602-4.302-5.398 0-10.75 1.454-15.597 4.301l-80.801 48c-9.648 5.7-15.602 16.301-15.602 27.75v95.95c0 11.453 5.954 22.05 15.602 27.75l80.8 47.953a30.586 30.586 0 0 0 15.598 4.296c5.403 0 10.75-1.449 15.602-4.296l80.8-47.954c9.65-5.75 15.598-16.296 15.598-27.75V80.7c0-11.449-5.949-22.05-15.597-27.75Zm-109.152 194.5L34.602 199.5c-7.903-4.7-12.801-13.45-12.801-22.852V80.7c0-9.398 4.898-18.148 12.8-22.847l80.797-47.954c3.903-2.296 8.301-3.5 12.75-3.5 4.454 0 8.903 1.204 12.75 3.5L221.7 57.852c6.653 3.949 11.153 10.796 12.403 18.5-2.704-5.704-8.704-7.301-15.75-3.153l-76.454 47.25c-9.546 5.551-16.546 11.852-16.546 23.301v94.2c0 6.902 2.75 11.35 7.046 12.652-1.398.25-2.796.398-4.25.398-4.449-.05-8.898-1.25-12.75-3.55Zm0 0"/><path style="stroke:none;fill-rule:nonzero;fill:#4da825;fill-opacity:1" d="M203.398 185.898 183.25 197.95c-.55.301-.95.653-.95 1.301v5.25c0 .648.45.898.95.602l20.45-12.403c.55-.3.6-.898.6-1.55V186.5c.052-.648-.402-.898-.902-.602Zm0 0"/><path style="stroke:none;fill-rule:nonzero;fill:#fff;fill-opacity:1" d="M160.55 141.602c.65-.352 1.2.097 1.2.949l.05 6.949c2.9-1.148 5.45-1.45 7.75-.95.5.15.7.802.5 1.598l-1.55 6.153c-.102.449-.398.949-.7 1.25-.152.148-.25.25-.402.3-.199.098-.398.149-.597.098-1.051-.25-3.551-.8-7.45 1.2-4.101 2.101-5.55 5.652-5.5 8.3.047 3.153 1.649 4.153 7.25 4.2 7.45.101 10.7 3.402 10.75 10.902.098 7.398-3.851 15.3-9.902 20.199l.153 6.898c0 .852-.551 1.801-1.204 2.102l-4.097 2.352c-.653.347-1.2-.051-1.2-.903l-.05-6.8c-3.5 1.453-7.051 1.8-9.301.902-.45-.153-.602-.801-.45-1.5l1.5-6.25c.098-.5.4-1 .75-1.301.15-.102.25-.2.4-.3.25-.098.448-.15.652-.052 2.449.801 5.546.454 8.546-1.097 3.801-1.95 6.352-5.801 6.301-9.7-.05-3.5-1.949-4.953-6.55-5-5.848 0-11.348-1.152-11.45-9.8-.05-7.102 3.653-14.5 9.5-19.2l-.05-6.953c0-.847.5-1.796 1.203-2.148Zm0 0"/></svg>