<svg xmlns="http://www.w3.org/2000/svg" width="256" height="256"><path style="stroke:none;fill-rule:nonzero;fill:#ff5722;fill-opacity:1" d="M157.793 16c112.543 75.105 76.047 157.633 76.047 157.633s31.969 35.375 19.12 66.367c0 0-13.265-21.648-35.28-21.648-21.282 0-33.871 21.648-76.832 21.648C45.297 240 0 161.695 0 161.695c86.113 55.68 144.945 16.227 144.945 16.227C106.063 155.872 23.602 50.289 23.602 50.289c71.886 60.016 102.91 75.773 102.91 75.773-18.657-14.972-70.64-88.367-70.64-88.367 41.6 41.266 124.288 98.801 124.288 98.801C203.871 72.91 157.793 16 157.793 16Zm0 0"/></svg>