<svg xmlns="http://www.w3.org/2000/svg" viewBox="0 0 24 24"><path fill="#1677C7" d="M0 12v12h24V0H0v12zm14.563 7.626c.108-.061.511-.294.892-.515l.69-.4.145.214c.202.308.643.731.91.872.766.404 1.817.347 2.335-.118a.88.88 0 0 0 .314-.675l-.001-.047v.002c0-.278-.035-.4-.18-.61-.186-.266-.567-.49-1.649-.96-1.238-.533-1.771-.864-2.259-1.39a3.152 3.152 0 0 1-.653-1.178l-.006-.022c-.091-.339-.114-1.189-.042-1.531.255-1.197 1.158-2.03 2.461-2.278.423-.08 1.406-.05 1.821.053v.001c.61.152 1.074.423 1.501.865.221.236.549.666.575.77.008.03-1.036.73-1.668 1.123-.023.015-.115-.084-.217-.236-.31-.45-.633-.644-1.128-.678-.728-.05-1.196.331-1.192.967l-.001.037c0 .151.038.293.105.417l-.002-.005c.16.331.458.53 1.39.933 1.719.74 2.454 1.227 2.911 1.92.51.773.625 2.008.278 2.926-.38.998-1.325 1.676-2.655 1.9-.411.073-1.386.062-1.828-.018-.964-.172-1.878-.648-2.442-1.273-.221-.243-.652-.88-.625-.925a1.58 1.58 0 0 1 .22-.141zm-9.305-7.561c0-.534.011-.98.026-.99.012-.016 1.913-.024 4.217-.02l4.195.012.011.979.008.983H10.59v8.876H8.38v-8.876H5.258v-.964z"/></svg>