<svg xmlns="http://www.w3.org/2000/svg" width="256" height="256"><path style="stroke:none;fill-rule:nonzero;fill:#1677c7;fill-opacity:1" d="M0 128v128h256V0H0Zm155.34 81.344c1.152-.653 5.45-3.137 9.512-5.492l7.363-4.266 1.547 2.281c2.152 3.285 6.855 7.797 9.703 9.301 8.172 4.309 19.383 3.703 24.91-1.258a9.392 9.392 0 0 0 3.348-7.2l-.012-.503v.023c0-2.964-.371-4.27-1.918-6.507-1.984-2.836-6.05-5.227-17.59-10.239-13.207-5.687-18.89-9.218-24.098-14.828a33.652 33.652 0 0 1-6.964-12.566l-.063-.235c-.973-3.617-1.215-12.683-.45-16.332 2.72-12.765 12.352-21.652 26.25-24.296 4.513-.852 15-.536 19.427.566v.008c6.507 1.625 11.457 4.515 16.011 9.23 2.356 2.516 5.856 7.102 6.133 8.211.086.32-11.05 7.79-17.793 11.98-.246.16-1.226-.898-2.316-2.519-3.305-4.8-6.75-6.867-12.031-7.23-7.766-.536-12.758 3.53-12.715 10.312l-.008.395c0 1.613.402 3.129 1.117 4.449l-.02-.055c1.708 3.531 4.883 5.656 14.825 9.953 18.336 7.895 26.176 13.09 31.05 20.48 5.442 8.247 6.669 21.419 2.965 31.212-4.05 10.644-14.132 17.879-28.316 20.265-4.387.782-14.785.664-19.5-.191-10.281-1.836-20.031-6.91-26.047-13.578-2.36-2.594-6.957-9.387-6.668-9.867a16.756 16.756 0 0 1 2.348-1.504ZM56.086 128.69c0-5.695.117-10.453.277-10.558.13-.172 20.407-.254 44.98-.211l44.747.125.117 10.445.086 10.485h-33.332v94.675H89.387v-94.675H56.086Zm0 0"/></svg>